Coordinates
version=1
nRows=10
nColumns=63
inDegrees=yes

Units are S.I. units (second, meters, Newtons, ...)
If the header above contains a line with 'inDegrees', this indicates whether rotational values are in degrees (yes) or radians (no).

endheader
time	pelvis_tilt	pelvis_list	pelvis_rotation	pelvis_tx	pelvis_ty	pelvis_tz	hip_flexion_r	hip_adduction_r	hip_rotation_r	knee_angle_r	knee_angle_r_beta	ankle_angle_r	subtalar_angle_r	mtp_angle_r	hip_flexion_l	hip_adduction_l	hip_rotation_l	knee_angle_l	knee_angle_l_beta	ankle_angle_l	subtalar_angle_l	mtp_angle_l	L5_S1_Flex_Ext	L5_S1_Lat_Bending	L5_S1_axial_rotation	L4_L5_Flex_Ext	L4_L5_Lat_Bending	L4_L5_axial_rotation	L3_L4_Flex_Ext	L3_L4_Lat_Bending	L3_L4_axial_rotation	L2_L3_Flex_Ext	L2_L3_Lat_Bending	L2_L3_axial_rotation	L1_L2_Flex_Ext	L1_L2_Lat_Bending	L1_L2_axial_rotation	L1_T12_Flex_Ext	L1_T12_Lat_Bending	L1_T12_axial_rotation	Abs_r3	Abs_r2	Abs_r1	Abs_t1	Abs_t2	neck_flexion	neck_bending	neck_rotation	arm_flex_r	arm_add_r	arm_rot_r	elbow_flex_r	pro_sup_r	wrist_flex_r	wrist_dev_r	arm_flex_l	arm_add_l	arm_rot_l	elbow_flex_l	pro_sup_l	wrist_flex_l	wrist_dev_l
1.762712	1.091947	-1.246651	97.718812	0.242718	0.714050	0.785915	-2.154907	2.024865	-2.518040	1.059022	0.018483	25.902639	-7.242767	0.000000	-2.513068	-3.380448	-2.185339	4.169420	0.072770	28.668934	12.050549	0.000000	0.047165	0.286427	-0.384523	0.087590	0.380948	-0.408555	0.077488	0.696418	-0.408555	0.053905	0.696418	-0.336457	0.043798	0.584082	-0.312425	0.026950	0.443675	-0.288392	0.336896	3.240119	-2.138600	0.000000	0.000000	17.946556	-3.803376	-4.007896	6.840458	-11.567303	61.704447	48.914524	85.150469	-9.757716	2.055713	4.907866	-5.970942	55.222898	44.953812	48.150967	0.332613	16.104386
1.779661	1.048072	-1.393737	97.401370	0.243251	0.713767	0.786665	-1.911240	1.944443	-1.924353	1.025223	0.017894	26.614997	-6.656763	0.000000	-2.480721	-3.283435	-2.533793	3.901847	0.068100	28.965704	12.394842	0.000000	0.051823	0.282938	-0.360522	0.096240	0.376308	-0.383054	0.085140	0.687936	-0.383054	0.059228	0.687936	-0.315456	0.048123	0.576968	-0.292924	0.029612	0.438272	-0.270391	0.370165	3.200655	-2.005113	0.000000	0.000000	18.428960	-3.622925	-3.641856	6.953896	-11.575939	62.019952	48.908220	84.168217	-10.169543	1.695752	4.809336	-5.996458	54.732108	45.168360	48.386365	0.337819	16.108709
1.796610	1.001088	-1.556417	97.009674	0.243921	0.713484	0.787518	-1.616633	1.860718	-1.202505	1.000190	0.017457	27.408826	-6.085909	0.000000	-2.445244	-3.179821	-2.854577	3.620760	0.063194	29.149929	12.546847	0.000000	0.059284	0.278578	-0.326169	0.110096	0.370509	-0.346554	0.097397	0.677334	-0.346554	0.067756	0.677334	-0.285398	0.055051	0.568076	-0.265012	0.033875	0.431517	-0.244627	0.423459	3.151329	-1.814052	0.000000	0.000000	18.892861	-3.399224	-3.236346	7.096853	-11.577792	62.410148	48.880134	83.109257	-10.714726	1.270880	4.648831	-5.992797	54.033345	45.393372	48.911462	0.392622	16.148628
1.813559	0.958734	-1.717986	96.598122	0.244644	0.713228	0.788456	-1.303890	1.783530	-0.452194	0.980466	0.017112	28.213606	-5.547905	0.000000	-2.413825	-3.084318	-3.195611	3.338251	0.058263	29.206227	12.647421	0.000000	0.067287	0.273770	-0.288637	0.124959	0.364114	-0.306676	0.110546	0.665643	-0.306676	0.076902	0.665643	-0.252557	0.062483	0.558271	-0.234517	0.038448	0.424069	-0.216477	0.480624	3.096936	-1.605310	0.000000	0.000000	19.340750	-3.154772	-2.862613	7.244629	-11.576469	62.748704	48.858892	81.920754	-11.148108	0.906476	4.444628	-5.956415	53.154237	45.609593	49.773615	0.492547	16.214084
1.830508	0.907799	-1.893752	96.124242	0.245471	0.712994	0.789463	-0.958133	1.697039	0.270737	0.975862	0.017032	28.982804	-4.974201	0.000000	-2.381475	-2.977293	-3.506226	3.048857	0.053213	29.114454	12.569940	0.000000	0.078004	0.267412	-0.239917	0.144861	0.355658	-0.254912	0.128152	0.650185	-0.254912	0.089150	0.650185	-0.209928	0.072434	0.545306	-0.194933	0.044571	0.414221	-0.179938	0.557173	3.025015	-1.334349	0.000000	0.000000	19.788324	-2.861651	-2.472568	7.422364	-11.567850	63.151601	48.809739	80.584510	-11.611073	0.479572	4.205485	-5.895186	52.138725	45.811158	50.838864	0.619921	16.308849
1.847458	0.854051	-2.072624	95.629065	0.246341	0.712818	0.790512	-0.605343	1.612497	0.904553	0.976324	0.017040	29.630343	-4.381514	0.000000	-2.351048	-2.870984	-3.808409	2.755370	0.048090	28.870457	12.394545	0.000000	0.090559	0.260593	-0.188179	0.168177	0.346588	-0.199940	0.148779	0.633605	-0.199940	0.103500	0.633605	-0.164657	0.084093	0.531401	-0.152896	0.051745	0.403658	-0.141134	0.646853	2.947877	-1.046596	0.000000	0.000000	20.235536	-2.519557	-2.041702	7.622554	-11.548841	63.565542	48.732563	79.096924	-11.925275	0.070455	3.970377	-5.816727	51.099001	45.970865	52.014953	0.756426	16.396903
1.864407	0.802829	-2.257199	95.149964	0.247174	0.712688	0.791635	-0.243047	1.531896	1.319269	0.989764	0.017275	30.187332	-3.614717	0.000000	-2.304743	-2.770182	-4.044418	2.468512	0.043084	28.553312	12.102030	0.000000	0.104336	0.254022	-0.132887	0.193762	0.337849	-0.141193	0.171413	0.617629	-0.141193	0.119245	0.617629	-0.116276	0.096886	0.518002	-0.107971	0.059617	0.393480	-0.099666	0.745260	2.873548	-0.739080	0.000000	0.000000	20.687959	-2.171789	-1.649437	7.773775	-11.530313	63.791227	48.676995	77.754211	-12.138079	-0.221757	3.785139	-5.723350	50.134674	46.079263	53.233113	0.936748	16.491236
1.881356	0.733403	-2.439747	94.686753	0.247986	0.712651	0.792813	0.109253	1.436570	1.701253	1.008029	0.017593	30.551278	-2.953766	0.000000	-2.252607	-2.652682	-4.209840	2.183930	0.038117	28.160189	11.722145	0.000000	0.118587	0.245398	-0.081702	0.220227	0.326379	-0.086809	0.194826	0.596660	-0.086809	0.135533	0.596660	-0.071490	0.110120	0.500415	-0.066383	0.067760	0.380121	-0.061277	0.847053	2.775989	-0.454404	0.000000	0.000000	21.112864	-1.791977	-1.228299	7.952580	-11.486184	64.062649	48.565089	76.264269	-12.208434	-0.538995	3.651319	-5.633525	49.286958	46.130784	54.291442	1.075239	16.541266
1.898305	0.656842	-2.621696	94.273546	0.248713	0.712675	0.794067	0.449150	1.335976	1.991928	1.029429	0.017967	30.782373	-2.313471	0.000000	-2.178174	-2.531244	-4.306238	1.912926	0.033387	27.779250	11.308714	0.000000	0.132530	0.236389	-0.038359	0.246122	0.314397	-0.040757	0.217734	0.574756	-0.040757	0.151469	0.574756	-0.033564	0.123068	0.482044	-0.031167	0.075728	0.366166	-0.028769	0.946650	2.674078	-0.213342	0.000000	0.000000	21.517345	-1.389888	-0.774188	8.156142	-11.436044	64.357865	48.423755	74.680917	-12.115356	-0.861817	3.569090	-5.548953	48.546898	46.150137	55.244052	1.191557	16.579798
1.915254	0.553172	-2.790369	93.881789	0.249388	0.712810	0.795375	0.762080	1.207417	2.241074	1.060202	0.018504	30.842002	-1.772372	0.000000	-2.105375	-2.380753	-4.364029	1.648127	0.028765	27.360679	10.861131	0.000000	0.144334	0.224178	0.005878	0.268043	0.298157	0.006245	0.237127	0.545067	0.006245	0.164960	0.545067	0.005143	0.134029	0.457144	0.004776	0.082473	0.347252	0.004408	1.030967	2.535950	0.032691	0.000000	0.000000	21.837108	-1.020839	-0.397619	8.382872	-11.369711	64.698109	48.243904	73.153880	-12.008502	-1.194771	3.553763	-5.469283	47.971693	46.105377	55.924691	1.256894	16.543140
